<svg xmlns="http://www.w3.org/2000/svg" viewBox="0 0 512 512">
  <defs>
    <linearGradient id="iconBg" x1="0%" y1="0%" x2="100%" y2="100%">
      <stop offset="0%"   stop-color="#a78bfa"/>
      <stop offset="50%"  stop-color="#f472b6"/>
      <stop offset="100%" stop-color="#fb923c"/>
    </linearGradient>
    <linearGradient id="starGrad" x1="0%" y1="0%" x2="100%" y2="100%">
      <stop offset="0%"   stop-color="#FFFFFF"/>
      <stop offset="100%" stop-color="#FFF0C0"/>
    </linearGradient>
  </defs>
  <!-- 배경 둥근 사각형 -->
  <rect width="512" height="512" rx="115" ry="115" fill="url(#iconBg)"/>
  <!-- 큰 별 -->
  <path d="M256 80 L293 188 L410 188 L318 254 L355 362 L256 298 L157 362 L194 254 L102 188 L219 188 Z"
        fill="url(#starGrad)" opacity="0.97"/>
  <!-- 별 안 황금 빛 -->
  <path d="M256 118 L281 198 L365 198 L298 246 L323 326 L256 278 L189 326 L214 246 L147 198 L231 198 Z"
        fill="#FBBF24" opacity="0.45"/>
  <!-- 장식 작은 별들 -->
  <circle cx="120" cy="120" r="22" fill="white" opacity="0.45"/>
  <circle cx="392" cy="112" r="16" fill="white" opacity="0.35"/>
  <circle cx="400" cy="390" r="14" fill="white" opacity="0.28"/>
  <circle cx="112" cy="395" r="18" fill="white" opacity="0.32"/>
</svg>
