<svg xmlns="http://www.w3.org/2000/svg" viewBox="0 0 120 145">
  <!-- 왼쪽 귀 (긴 타원) -->
  <ellipse cx="38" cy="26" rx="14" ry="30" fill="#FFB3C6"/>
  <ellipse cx="38" cy="26" rx="8"  ry="23" fill="#FF69B4" opacity="0.75"/>
  <!-- 오른쪽 귀 -->
  <ellipse cx="82" cy="26" rx="14" ry="30" fill="#FFB3C6"/>
  <ellipse cx="82" cy="26" rx="8"  ry="23" fill="#FF69B4" opacity="0.75"/>
  <!-- 귀 끝 반짝임 -->
  <circle cx="38" cy="6" r="5" fill="white" opacity="0.5"/>
  <circle cx="82" cy="6" r="5" fill="white" opacity="0.5"/>
  <!-- 얼굴 기본 (연한 크림핑크) -->
  <ellipse cx="60" cy="96" rx="47" ry="45" fill="#FFF0F5"/>
  <!-- 왼쪽 눈 흰자 -->
  <circle cx="43" cy="87" r="12" fill="white"/>
  <!-- 오른쪽 눈 흰자 -->
  <circle cx="77" cy="87" r="12" fill="white"/>
  <!-- 왼쪽 눈동자 -->
  <circle cx="44" cy="88" r="7.8" fill="#1E1B2E"/>
  <!-- 오른쪽 눈동자 -->
  <circle cx="78" cy="88" r="7.8" fill="#1E1B2E"/>
  <!-- 눈 반짝임 (큰) -->
  <circle cx="47" cy="85" r="3.0" fill="white"/>
  <circle cx="81" cy="85" r="3.0" fill="white"/>
  <!-- 눈 반짝임 (작은) -->
  <circle cx="42" cy="90" r="1.4" fill="white" opacity="0.8"/>
  <circle cx="76" cy="90" r="1.4" fill="white" opacity="0.8"/>
  <!-- 코 -->
  <ellipse cx="60" cy="102" rx="6" ry="4.5" fill="#FF69B4"/>
  <!-- 입 (Y자형) -->
  <path d="M 54 107 Q 60 114 66 107" stroke="#FF69B4" stroke-width="2.5" fill="none" stroke-linecap="round"/>
  <line x1="60" y1="106" x2="60" y2="114" stroke="#FF69B4" stroke-width="2" stroke-linecap="round"/>
  <!-- 볼 홍조 (왼쪽) -->
  <circle cx="31" cy="100" r="10" fill="#FF69B4" opacity="0.28"/>
  <!-- 볼 홍조 (오른쪽) -->
  <circle cx="89" cy="100" r="10" fill="#FF69B4" opacity="0.28"/>
  <!-- 수염 점 (왼쪽) -->
  <circle cx="46" cy="106" r="1.8" fill="#FF69B4" opacity="0.55"/>
  <circle cx="41" cy="109" r="1.8" fill="#FF69B4" opacity="0.55"/>
  <!-- 수염 점 (오른쪽) -->
  <circle cx="74" cy="106" r="1.8" fill="#FF69B4" opacity="0.55"/>
  <circle cx="79" cy="109" r="1.8" fill="#FF69B4" opacity="0.55"/>
</svg>
